<?xml version="1.0" standalone="no"?>
<!DOCTYPE svg PUBLIC "-//W3C//DTD SVG 20010904//EN"
 "http://www.w3.org/TR/2001/REC-SVG-20010904/DTD/svg10.dtd">
<svg version="1.0" xmlns="http://www.w3.org/2000/svg"
 width="512.000000pt" height="210.000000pt" viewBox="0 0 512.000000 210.000000"
 preserveAspectRatio="xMidYMid meet">

<g transform="translate(0.000000,210.000000) scale(0.100000,-0.100000)"
fill="#000000" stroke="none">
<path d="M817 1353 c-63 -24 -110 -63 -144 -121 -24 -41 -28 -58 -28 -127 0
-91 15 -129 72 -189 51 -52 87 -68 165 -74 78 -5 140 9 182 43 l29 23 -32 41
c-18 23 -35 41 -38 41 -3 0 -16 -9 -30 -20 -37 -29 -119 -27 -163 3 -133 90
-59 300 101 285 27 -3 57 -12 67 -22 10 -9 21 -16 24 -16 12 0 59 80 53 90 -3
5 -25 20 -48 31 -57 30 -148 34 -210 12z"/>
<path d="M1615 1356 c-77 -33 -128 -100 -144 -189 -23 -126 32 -251 134 -306
35 -19 75 -28 75 -17 0 2 -19 46 -42 97 -66 148 -65 247 4 304 59 50 139 19
179 -70 38 -82 12 -157 -75 -219 -19 -13 -19 -14 0 -60 17 -42 22 -46 44 -41
37 9 112 76 140 126 21 37 25 57 25 124 0 120 -44 195 -142 244 -49 24 -150
28 -198 7z"/>
<path d="M3118 1360 c-192 -49 -262 -286 -128 -433 83 -91 214 -115 321 -59
29 15 54 32 56 37 1 6 -12 28 -31 49 l-33 40 -33 -24 c-69 -49 -167 -21 -207
60 -28 55 -29 92 -3 144 26 53 59 76 119 83 40 5 57 1 87 -16 l37 -22 28 33
c15 18 28 40 29 49 1 43 -154 81 -242 59z"/>
<path d="M1162 1103 l3 -248 141 -3 142 -3 4 43 c7 67 6 68 -88 68 l-84 0 0
183 c0 129 -4 187 -12 195 -7 7 -34 12 -60 12 l-48 0 2 -247z"/>
<path d="M1990 1295 l0 -55 65 0 65 0 0 -195 0 -196 56 3 56 3 -1 181 c-1 99
1 188 5 198 5 13 17 17 53 16 73 -3 71 -4 71 50 l0 50 -185 0 -185 0 0 -55z"/>
<path d="M2422 1103 l3 -248 57 -3 57 -3 3 98 3 98 80 0 80 0 3 -98 3 -98 57
3 57 3 3 248 2 247 -60 0 -60 0 0 -100 0 -100 -69 0 c-38 0 -76 -3 -85 -6 -14
-5 -16 6 -16 84 0 108 -9 122 -76 122 l-44 0 2 -247z"/>
<path d="M3432 1152 c3 -193 4 -200 28 -235 35 -52 91 -77 171 -76 85 0 126
16 163 62 l31 39 3 195 c4 218 5 213 -65 213 l-41 0 -4 -179 c-3 -155 -5 -182
-21 -199 -38 -42 -114 -34 -136 15 -7 14 -11 91 -11 193 l0 170 -61 0 -61 0 4
-198z"/>
<path d="M3950 1100 l0 -251 143 3 142 3 3 52 3 52 -88 3 -88 3 -3 179 c-1
112 -7 185 -13 193 -7 7 -31 13 -55 13 l-44 0 0 -250z"/>
<path d="M4200 1300 l0 -50 65 0 65 0 2 -197 3 -198 57 -3 58 -3 2 198 3 198
63 3 62 3 0 49 0 50 -190 0 -190 0 0 -50z"/>
</g>
</svg>
